<svg width="58" height="100" viewBox="0 0 58 100" fill="none" xmlns="http://www.w3.org/2000/svg">
  <path
    d="M8.36659 12.0303H15.3109C19.9056 32.2984 18.8249 52.4834 14.028 73.2929C15.6177 72.272 16.6774 71.6053 17.7163 70.9107C21.9484 68.0766 26.1457 65.1873 30.4126 62.416C33.5989 60.3458 35.0352 60.7142 37.0014 63.8607C40.5989 69.6188 44.1968 75.377 47.8014 81.128C48.1149 81.628 48.5053 82.0865 49.2025 83.0312C47.9268 66.4376 46.6925 50.4131 45.4236 33.9515C44.6917 34.5558 44.0852 34.9587 43.597 35.4727C39.574 39.6819 35.572 43.8979 31.577 48.128C30.3847 49.3922 29.0182 50.9273 27.2752 49.8646C26.1108 49.156 25.1695 47.5238 24.8349 46.1348C23.4056 40.2514 22.2343 34.3058 20.9932 28.374C20.5749 26.3666 21.1884 24.7413 23.2452 24.144C25.4415 23.5049 26.6825 24.908 27.1636 26.7625C28.2443 30.8953 29.1228 35.0837 30.1965 39.7234C31.0889 38.9248 31.8001 38.3482 32.4485 37.7092C36.5759 33.6112 40.7105 29.5131 44.81 25.3803C46.1767 24.005 47.5293 22.6089 49.6836 23.4632C51.643 24.2412 51.5452 26.0888 51.6568 27.7906C52.6749 42.8493 53.6091 57.9149 54.7665 72.9667C55.3312 80.35 56.2444 87.7128 57.1577 95.0614C57.4227 97.2146 56.9767 98.861 54.9964 99.7082C52.8141 100.646 51.5523 99.3124 50.4647 97.5412C45.1589 88.9631 39.7972 80.4195 34.4495 71.8621C33.843 70.8897 33.2085 69.9245 32.309 68.5213C25.7692 73.1958 19.3827 77.7454 13.017 82.3227C11.9294 83.1075 11.016 84.3231 9.81683 84.7121C8.51999 85.1358 6.59568 85.3649 5.66139 84.6912C4.7829 84.0592 4.21817 81.9337 4.5877 80.8085C9.74013 65.0968 11.8806 48.9823 11.0579 32.5276C10.7581 26.582 9.56583 20.6849 8.77796 14.767C8.6664 13.9196 8.51999 13.0722 8.36659 12.0373V12.0303Z"
    fill="#00442F" />
  <path
    d="M13.038 4.9729C15.3527 4.9729 17.4235 4.81315 19.4524 5.04932C20.289 5.14656 21.0281 6.0912 21.809 6.64687C21.1675 7.45953 20.554 8.9529 19.8777 8.98762C15.4155 9.20989 10.9254 9.30021 6.47017 9.05014C4.32973 8.93205 4.2321 7.06361 6.39347 4.16719C4.84568 4.09078 3.48609 4.27833 2.31476 3.88936C1.41535 3.59067 0.766938 2.56269 0 1.85421C0.766938 1.22907 1.51296 0.124679 2.31476 0.0830035C5.25006 -0.0698061 8.22716 -0.0142391 11.1625 0.235813C13.6585 0.444191 14.1535 1.78475 13.045 4.9729H13.038Z"
    fill="#00442F" />
</svg>
