<svg width="316" height="100" viewBox="0 0 316 100" fill="none" xmlns="http://www.w3.org/2000/svg">
  <path
    d="M8.36659 12.0303H15.3109C19.9056 32.2984 18.8249 52.4834 14.028 73.2929C15.6177 72.272 16.6774 71.6053 17.7163 70.9107C21.9484 68.0766 26.1457 65.1873 30.4126 62.416C33.5989 60.3458 35.0352 60.7142 37.0014 63.8607C40.5989 69.6188 44.1968 75.377 47.8014 81.128C48.1149 81.628 48.5053 82.0865 49.2025 83.0312C47.9268 66.4376 46.6925 50.4131 45.4236 33.9515C44.6917 34.5558 44.0852 34.9587 43.597 35.4727C39.574 39.6819 35.572 43.8979 31.577 48.128C30.3847 49.3922 29.0182 50.9273 27.2752 49.8646C26.1108 49.156 25.1695 47.5238 24.8349 46.1348C23.4056 40.2514 22.2343 34.3058 20.9932 28.374C20.5749 26.3666 21.1884 24.7413 23.2452 24.144C25.4415 23.5049 26.6825 24.908 27.1636 26.7625C28.2443 30.8953 29.1228 35.0837 30.1965 39.7234C31.0889 38.9248 31.8001 38.3482 32.4485 37.7092C36.5759 33.6112 40.7105 29.5131 44.81 25.3803C46.1767 24.005 47.5293 22.6089 49.6836 23.4632C51.643 24.2412 51.5452 26.0888 51.6568 27.7906C52.6749 42.8493 53.6091 57.9149 54.7665 72.9667C55.3312 80.35 56.2444 87.7128 57.1577 95.0614C57.4227 97.2146 56.9767 98.861 54.9964 99.7082C52.8141 100.646 51.5523 99.3124 50.4647 97.5412C45.1589 88.9631 39.7972 80.4195 34.4495 71.8621C33.843 70.8897 33.2085 69.9245 32.309 68.5213C25.7692 73.1958 19.3827 77.7454 13.017 82.3227C11.9294 83.1075 11.016 84.3231 9.81683 84.7121C8.51999 85.1358 6.59568 85.3649 5.66139 84.6912C4.7829 84.0592 4.21817 81.9337 4.5877 80.8085C9.74013 65.0968 11.8806 48.9823 11.0579 32.5276C10.7581 26.582 9.56583 20.6849 8.77796 14.767C8.6664 13.9196 8.51999 13.0722 8.36659 12.0373V12.0303Z"
    fill="#008A5E" />
  <path
    d="M117.586 31.3399H128.002C127.605 33.507 127.256 35.5699 126.852 37.6259C124.035 51.9968 121.169 66.361 118.409 80.7461C118.06 82.5589 117.418 83.2397 115.459 83.2255C108.417 83.1702 108.382 83.2603 106.716 76.3493C104.959 69.0699 103.279 61.7766 101.55 54.4904C101.389 53.8305 101.104 53.1986 100.644 51.8929C98.9144 59.1511 97.3454 65.7291 95.7767 72.3138C95.0515 75.3489 94.4383 78.4191 93.5388 81.4057C93.3227 82.1351 92.221 83.045 91.4749 83.1007C83.7499 83.6773 83.7357 83.6355 82.3067 76.4603C79.4201 61.9574 76.5475 47.4475 73.6818 32.9374C73.5982 32.5068 73.668 32.0483 73.668 31.4232H83.9869C85.6601 41.6546 87.3403 51.9135 89.0139 62.1727C89.2161 62.1936 89.4252 62.2074 89.6274 62.2284C90.7497 57.373 91.8795 52.5177 92.9879 47.6628C94.0826 42.884 95.2049 38.1053 96.2022 33.3055C96.5019 31.8608 96.9691 31.0898 98.6143 31.2009C100.574 31.3329 102.547 31.2357 104.792 31.2357C107.169 41.5642 109.54 51.844 111.91 62.117C112.126 62.117 112.343 62.117 112.552 62.117C114.211 51.9553 115.877 41.7933 117.586 31.3329V31.3399Z"
    fill="black" />
  <path
    d="M184.072 46.6277H174.479C174.284 45.461 174.179 44.405 173.921 43.384C173.175 40.4667 171.313 38.8901 168.469 38.6677C165.171 38.4106 163.226 39.4457 162.124 42.0365C160.953 44.7872 161.448 47.8018 163.811 49.5379C165.805 51.0035 168.099 52.0801 170.323 53.2124C172.708 54.428 175.288 55.3032 177.56 56.6922C183.724 60.4709 186.101 66.5972 184.344 73.5433C182.936 79.1344 177.686 83.1908 170.93 83.7465C165.227 84.2121 159.865 83.3021 155.27 79.5234C151.715 76.6064 150.515 72.7096 150.48 68.3475C150.48 67.8404 151.261 67.0209 151.812 66.889C152.83 66.6457 153.953 66.7918 155.026 66.8124C156.637 66.8404 158.582 66.361 159.754 67.0972C160.667 67.667 160.604 69.7645 161.023 71.1745C161.901 74.1543 163.888 75.6475 167.158 75.8422C170.937 76.0645 172.973 75.0574 174.032 72.4319C175.155 69.6603 174.576 66.0415 172.289 64.333C170.386 62.9089 168.127 61.9574 165.98 60.8738C163.267 59.5053 160.423 58.3872 157.801 56.8731C152.767 53.9628 150.864 49.3574 151.324 43.7106C151.777 38.0564 154.922 34.2155 160.004 32.0969C165.359 29.8673 170.874 29.9715 176.187 32.3887C181.834 34.9587 185 40.7723 184.08 46.6486L184.072 46.6277Z"
    fill="black" />
  <path
    d="M292.058 64.694V82.8436H282.066V31.0134C289.401 31.3052 296.785 31.0551 303.994 32.0414C311.6 33.0764 316.258 40.1195 315.993 48.4408C315.728 56.8245 310.98 62.7145 303.185 63.9092C299.664 64.444 296.059 64.4301 292.058 64.7011V64.694ZM292.148 56.6436C296.673 55.8032 301.756 58.394 304.656 53.2681C306.79 49.4826 306.755 45.3915 304.189 41.8489C301.065 37.5426 296.373 39.7653 292.148 39.2858V56.6436Z"
    fill="#008A5E" />
  <path
    d="M217.044 52.2192V60.1933H201.775V75.106H220.258V83.177C217.539 83.177 214.973 83.177 212.407 83.177C206.042 83.177 199.676 83.1422 193.311 83.205C191.756 83.2188 191.038 82.8227 191.045 81.1209C191.094 64.8677 191.079 48.6075 191.094 32.354C191.094 32.097 191.205 31.8469 191.31 31.4163H220.188V39.2096H201.796V52.2124H217.058L217.044 52.2192Z"
    fill="black" />
  <path
    d="M235.541 83.0727C235.541 81.7113 235.541 80.6628 235.541 79.6209C235.541 67.1114 235.492 54.6018 235.59 42.0922C235.604 39.8833 235.004 39.0777 232.731 39.2167C229.88 39.3972 227.007 39.2582 223.919 39.2582V31.4232H257.468V39.1192H245.818C245.748 40.4461 245.644 41.4738 245.644 42.5018C245.63 55.1018 245.581 67.7018 245.686 80.3014C245.707 82.5798 244.988 83.2745 242.785 83.1075C240.491 82.9341 238.169 83.066 235.534 83.066L235.541 83.0727Z"
    fill="#008A5E" />
  <path d="M133.148 31.3538H143.194V82.9688H133.148V31.3538Z" fill="black" />
  <path d="M263.283 31.3954H273.037V82.8365H263.283V31.3954Z" fill="#008A5E" />
  <path
    d="M13.038 4.9729C15.3527 4.9729 17.4235 4.81315 19.4524 5.04932C20.289 5.14656 21.0281 6.0912 21.809 6.64687C21.1675 7.45953 20.554 8.9529 19.8777 8.98762C15.4155 9.20989 10.9254 9.30021 6.47017 9.05014C4.32973 8.93205 4.2321 7.06361 6.39347 4.16719C4.84568 4.09078 3.48609 4.27833 2.31476 3.88936C1.41535 3.59067 0.766938 2.56269 0 1.85421C0.766938 1.22907 1.51296 0.124679 2.31476 0.0830035C5.25006 -0.0698061 8.22716 -0.0142391 11.1625 0.235813C13.6585 0.444191 14.1535 1.78475 13.045 4.9729H13.038Z"
    fill="#008A5E" />
</svg>
