<svg width="243" height="54" viewBox="0 0 243 54" fill="none" xmlns="http://www.w3.org/2000/svg">
  <path
    d="M44.5857 1.33986H55.0023C54.6048 3.50699 54.2562 5.56986 53.8517 7.62589C51.035 21.9968 48.1693 36.361 45.4086 50.7461C45.06 52.5589 44.4184 53.2397 42.4594 53.2255C35.4174 53.1702 35.3823 53.2603 33.7162 46.3493C31.9591 39.0699 30.2789 31.7766 28.5497 24.4904C28.3892 23.8305 28.1037 23.1986 27.6435 21.8929C25.9144 29.1511 24.3454 35.7291 22.7767 42.3138C22.0515 45.3489 21.4383 48.4191 20.5388 51.4057C20.3227 52.1351 19.221 53.045 18.4749 53.1007C10.7499 53.6773 10.7357 53.6355 9.30666 46.4603C6.42015 31.9574 3.54745 17.4475 0.681844 2.93741C0.598239 2.50677 0.668028 2.04833 0.668028 1.42319H10.9869C12.6601 11.6546 14.3403 21.9135 16.0139 32.1727C16.2161 32.1936 16.4252 32.2074 16.6274 32.2284C17.7497 27.373 18.8795 22.5177 19.9879 17.6628C21.0826 12.884 22.2049 8.10532 23.2022 3.30553C23.5019 1.86078 23.9691 1.08979 25.6143 1.20092C27.5737 1.33291 29.547 1.23567 31.7919 1.23567C34.1693 11.5642 36.5397 21.844 38.9104 32.117C39.1265 32.117 39.3426 32.117 39.552 32.117C41.2113 21.9553 42.8774 11.7933 44.5857 1.33291V1.33986Z"
    fill="black" />
  <path
    d="M111.072 16.6277H101.479C101.284 15.461 101.179 14.405 100.921 13.384C100.175 10.4667 98.3134 8.89007 95.4687 8.66773C92.1709 8.41064 90.2257 9.44575 89.1239 12.0365C87.9528 14.7872 88.4477 17.8018 90.8113 19.5379C92.8054 21.0035 95.0993 22.0801 97.3233 23.2124C99.7078 24.428 102.288 25.3032 104.56 26.6922C110.724 30.4709 113.101 36.5972 111.344 43.5433C109.936 49.1344 104.686 53.1908 97.9298 53.7465C92.2265 54.2121 86.8652 53.3021 82.2704 49.5234C78.7147 46.6064 77.5152 42.7096 77.4805 38.3475C77.4805 37.8404 78.2613 37.0209 78.8121 36.889C79.8303 36.6457 80.9526 36.7918 82.0263 36.8124C83.6368 36.8404 85.5821 36.361 86.7536 37.0972C87.6669 37.667 87.6042 39.7645 88.0226 41.1745C88.9008 44.1543 90.8882 45.6475 94.158 45.8422C97.9369 46.0645 99.9728 45.0574 101.032 42.4319C102.155 39.6603 101.576 36.0415 99.2894 34.333C97.386 32.9089 95.1272 31.9574 92.9797 30.8738C90.2675 29.5053 87.4228 28.3872 84.8013 26.8731C79.7672 23.9628 77.8641 19.3574 78.324 13.7106C78.7774 8.05638 81.9218 4.21546 87.0044 2.09695C92.359 -0.132661 97.8742 -0.028476 103.187 2.38869C108.834 4.95869 112 10.7723 111.08 16.6486L111.072 16.6277Z"
    fill="black" />
  <path
    d="M219.058 34.694V52.8436H209.066V1.01341C216.401 1.30515 223.785 1.05508 230.994 2.04139C238.6 3.07635 243.258 10.1195 242.993 18.4408C242.728 26.8245 237.98 32.7145 230.185 33.9092C226.664 34.444 223.059 34.4301 219.058 34.7011V34.694ZM219.148 26.6436C223.673 25.8032 228.756 28.394 231.656 23.2681C233.79 19.4826 233.755 15.3915 231.189 11.8489C228.065 7.54256 223.373 9.76526 219.148 9.28582V26.6436Z"
    fill="#0C442F" />
  <path
    d="M144.044 22.2192V30.1933H128.775V45.106H147.258V53.177C144.539 53.177 141.973 53.177 139.407 53.177C133.042 53.177 126.676 53.1422 120.311 53.205C118.756 53.2188 118.038 52.8227 118.045 51.1209C118.094 34.8677 118.079 18.6075 118.094 2.35398C118.094 2.09696 118.205 1.84693 118.31 1.41629H147.188V9.20959H128.796V22.2124H144.058L144.044 22.2192Z"
    fill="black" />
  <path
    d="M162.541 53.0727C162.541 51.7113 162.541 50.6628 162.541 49.6209C162.541 37.1114 162.492 24.6018 162.59 12.0922C162.604 9.88334 162.004 9.07767 159.731 9.21667C156.88 9.39717 154.007 9.25816 150.919 9.25816V1.42323H184.468V9.11915H172.818C172.748 10.4461 172.644 11.4738 172.644 12.5018C172.63 25.1018 172.581 37.7018 172.686 50.3014C172.707 52.5798 171.988 53.2745 169.785 53.1075C167.491 52.9341 165.169 53.066 162.534 53.066L162.541 53.0727Z"
    fill="#0C442F" />
  <path d="M60.1476 1.35376H70.1944V52.9688H60.1476V1.35376Z" fill="black" />
  <path d="M190.283 1.39543H200.037V52.8365H190.283V1.39543Z" fill="#0C442F" />
</svg>
